<svg version="1.1" viewBox="0.0 0.0 960.0 540.0" fill="none" stroke="none" stroke-linecap="square" stroke-miterlimit="10" xmlns:xlink="http://www.w3.org/1999/xlink" xmlns="http://www.w3.org/2000/svg"><clipPath id="p.0"><path d="m0 0l960.0 0l0 540.0l-960.0 0l0 -540.0z" clip-rule="nonzero"/></clipPath><g clip-path="url(#p.0)"><path fill="#000000" fill-opacity="0.0" d="m0 0l960.0 0l0 540.0l-960.0 0z" fill-rule="evenodd"/><path fill="#000000" fill-opacity="0.0" d="m23.425198 113.74693l0 0c0 -42.241203 34.243263 -76.48447 76.48447 -76.48447l752.47986 0c20.284973 0 39.739075 8.058163 54.082703 22.401783c14.343628 14.343624 22.401794 33.79774 22.401794 54.082684l0 305.9287c0 42.24121 -34.243286 76.48447 -76.4845 76.48447l-752.47986 0c-42.241207 0 -76.48447 -34.243256 -76.48447 -76.48447z" fill-rule="evenodd"/><path stroke="#000000" stroke-width="1.0" stroke-linejoin="round" stroke-linecap="butt" d="m23.425198 113.74693l0 0c0 -42.241203 34.243263 -76.48447 76.48447 -76.48447l752.47986 0c20.284973 0 39.739075 8.058163 54.082703 22.401783c14.343628 14.343624 22.401794 33.79774 22.401794 54.082684l0 305.9287c0 42.24121 -34.243286 76.48447 -76.4845 76.48447l-752.47986 0c-42.241207 0 -76.48447 -34.243256 -76.48447 -76.48447z" fill-rule="evenodd"/><path fill="#000000" fill-opacity="0.0" d="m698.06824 56.377953l191.33856 0l0 424.50394l-191.33856 0z" fill-rule="evenodd"/><path stroke="#000000" stroke-width="1.0" stroke-linejoin="round" stroke-linecap="butt" stroke-dasharray="4.0,3.0" d="m698.06824 56.377953l191.33856 0l0 424.50394l-191.33856 0z" fill-rule="evenodd"/><path fill="#000000" fill-opacity="0.0" d="m478.01837 54.459316l208.50397 0l0 424.50394l-208.50397 0z" fill-rule="evenodd"/><path stroke="#000000" stroke-width="1.0" stroke-linejoin="round" stroke-linecap="butt" stroke-dasharray="4.0,3.0" d="m478.01837 54.459316l208.50397 0l0 424.50394l-208.50397 0z" fill-rule="evenodd"/><path fill="#000000" fill-opacity="0.0" d="m257.9685 54.459316l208.50394 0l0 424.50394l-208.50394 0z" fill-rule="evenodd"/><path stroke="#000000" stroke-width="1.0" stroke-linejoin="round" stroke-linecap="butt" stroke-dasharray="4.0,3.0" d="m257.9685 54.459316l208.50394 0l0 424.50394l-208.50394 0z" fill-rule="evenodd"/><path fill="#000000" fill-opacity="0.0" d="m61.603676 54.459316l184.81891 0l0 424.50394l-184.81891 0z" fill-rule="evenodd"/><path stroke="#000000" stroke-width="1.0" stroke-linejoin="round" stroke-linecap="butt" stroke-dasharray="4.0,3.0" d="m61.603676 54.459316l184.81891 0l0 424.50394l-184.81891 0z" fill-rule="evenodd"/><path fill="#000000" fill-opacity="0.0" d="m37.94488 297.02362l876.4094 0l0 155.93701l-876.4094 0z" fill-rule="evenodd"/><path stroke="#000000" stroke-width="1.0" stroke-linejoin="round" stroke-linecap="butt" stroke-dasharray="4.0,3.0" d="m37.94488 297.02362l876.4094 0l0 155.93701l-876.4094 0z" fill-rule="evenodd"/><path fill="#000000" fill-opacity="0.0" d="m37.94488 84.29921l876.4094 0l0 155.93701l-876.4094 0z" fill-rule="evenodd"/><path stroke="#000000" stroke-width="1.0" stroke-linejoin="round" stroke-linecap="butt" stroke-dasharray="4.0,3.0" d="m37.94488 84.29921l876.4094 0l0 155.93701l-876.4094 0z" fill-rule="evenodd"/><path fill="#fff2cc" d="m68.33333 122.91076l171.3386 0l0 77.51182l-171.3386 0z" fill-rule="evenodd"/><path fill="#000000" d="m145.19794 178.74666l-4.21875 0l0 -26.890625q-1.53125 1.453125 -4.0 2.90625q-2.46875 1.453125 -4.4375 2.1875l0 -4.078125q3.53125 -1.671875 6.171875 -4.03125q2.65625 -2.375 3.765625 -4.59375l2.71875 0l0 34.5zm10.8046875 -16.953125q0 -6.09375 1.25 -9.796875q1.25 -3.71875 3.71875 -5.734375q2.484375 -2.015625 6.234375 -2.015625q2.765625 0 4.84375 1.109375q2.09375 1.109375 3.453125 3.21875q1.359375 2.09375 2.125 5.109375q0.78125 3.0 0.78125 8.109375q0 6.046875 -1.25 9.765625q-1.234375 3.71875 -3.71875 5.75q-2.46875 2.03125 -6.234375 2.03125q-4.96875 0 -7.8125 -3.578125q-3.390625 -4.28125 -3.390625 -13.96875zm4.328125 0q0 8.46875 1.984375 11.265625q1.984375 2.796875 4.890625 2.796875q2.90625 0 4.875 -2.8125q1.984375 -2.8125 1.984375 -11.25q0 -8.484375 -1.984375 -11.265625q-1.96875 -2.796875 -4.921875 -2.796875q-2.90625 0 -4.640625 2.46875q-2.1875 3.140625 -2.1875 11.59375z" fill-rule="nonzero"/><path fill="#fff2cc" d="m263.85983 122.91076l195.87402 0l0 77.51182l-195.87402 0z" fill-rule="evenodd"/><path fill="#000000" d="m359.2734 174.68416l0 4.0625l-22.71875 0q-0.046875 -1.53125 0.5 -2.9375q0.859375 -2.3125 2.765625 -4.5625q1.921875 -2.25 5.53125 -5.203125q5.59375 -4.59375 7.5625 -7.28125q1.96875 -2.6875 1.96875 -5.078125q0 -2.5 -1.796875 -4.21875q-1.78125 -1.734375 -4.671875 -1.734375q-3.046875 0 -4.875 1.828125q-1.828125 1.828125 -1.84375 5.0625l-4.34375 -0.4375q0.453125 -4.859375 3.359375 -7.390625q2.90625 -2.546875 7.796875 -2.546875q4.953125 0 7.828125 2.75q2.890625 2.734375 2.890625 6.78125q0 2.0625 -0.84375 4.0625q-0.84375 1.984375 -2.8125 4.1875q-1.953125 2.203125 -6.5 6.046875q-3.796875 3.1875 -4.875 4.328125q-1.078125 1.140625 -1.78125 2.28125l16.859375 0zm4.5234375 -12.890625q0 -6.09375 1.25 -9.796875q1.25 -3.71875 3.71875 -5.734375q2.484375 -2.015625 6.234375 -2.015625q2.765625 0 4.84375 1.109375q2.09375 1.109375 3.453125 3.21875q1.359375 2.09375 2.125 5.109375q0.78125 3.0 0.78125 8.109375q0 6.046875 -1.25 9.765625q-1.234375 3.71875 -3.71875 5.75q-2.46875 2.03125 -6.234375 2.03125q-4.96875 0 -7.8125 -3.578125q-3.390625 -4.28125 -3.390625 -13.96875zm4.328125 0q0 8.46875 1.984375 11.265625q1.984375 2.796875 4.890625 2.796875q2.90625 0 4.875 -2.8125q1.984375 -2.8125 1.984375 -11.25q0 -8.484375 -1.984375 -11.265625q-1.96875 -2.796875 -4.921875 -2.796875q-2.90625 0 -4.640625 2.46875q-2.1875 3.140625 -2.1875 11.59375z" fill-rule="nonzero"/><path fill="#fff2cc" d="m483.92416 122.91076l195.874 0l0 77.51182l-195.874 0z" fill-rule="evenodd"/><path fill="#000000" d="m557.18146 169.66853l4.21875 -0.5625q0.734375 3.59375 2.46875 5.171875q1.75 1.578125 4.265625 1.578125q2.96875 0 5.015625 -2.0625q2.0625 -2.0625 2.0625 -5.109375q0 -2.90625 -1.90625 -4.78125q-1.890625 -1.890625 -4.828125 -1.890625q-1.1875 0 -2.96875 0.46875l0.46875 -3.703125q0.421875 0.046875 0.671875 0.046875q2.703125 0 4.859375 -1.40625q2.15625 -1.40625 2.15625 -4.34375q0 -2.3125 -1.578125 -3.828125q-1.5625 -1.53125 -4.046875 -1.53125q-2.46875 0 -4.109375 1.546875q-1.640625 1.546875 -2.109375 4.640625l-4.21875 -0.75q0.78125 -4.25 3.515625 -6.578125q2.75 -2.328125 6.828125 -2.328125q2.8125 0 5.171875 1.203125q2.375 1.203125 3.625 3.296875q1.25 2.078125 1.25 4.421875q0 2.234375 -1.203125 4.0625q-1.1875 1.828125 -3.53125 2.90625q3.046875 0.703125 4.734375 2.921875q1.6875 2.203125 1.6875 5.53125q0 4.5 -3.28125 7.640625q-3.28125 3.125 -8.296875 3.125q-4.515625 0 -7.515625 -2.6875q-2.984375 -2.703125 -3.40625 -7.0zm26.679688 -7.875q0 -6.09375 1.25 -9.796875q1.25 -3.71875 3.71875 -5.734375q2.484375 -2.015625 6.234375 -2.015625q2.765625 0 4.84375 1.109375q2.09375 1.109375 3.453125 3.21875q1.359375 2.09375 2.125 5.109375q0.78125 3.0 0.78125 8.109375q0 6.046875 -1.25 9.765625q-1.234375 3.71875 -3.71875 5.75q-2.46875 2.03125 -6.234375 2.03125q-4.96875 0 -7.8125 -3.578125q-3.390625 -4.28125 -3.390625 -13.96875zm4.328125 0q0 8.46875 1.984375 11.265625q1.984375 2.796875 4.890625 2.796875q2.90625 0 4.875 -2.8125q1.984375 -2.8125 1.984375 -11.25q0 -8.484375 -1.984375 -11.265625q-1.96875 -2.796875 -4.921875 -2.796875q-2.90625 0 -4.640625 2.46875q-2.1875 3.140625 -2.1875 11.59375z" fill-rule="nonzero"/><path fill="#fff2cc" d="m706.87665 122.91076l175.81104 0l0 77.51182l-175.81104 0z" fill-rule="evenodd"/><path fill="#000000" d="m783.6025 178.74666l0 -8.234375l-14.90625 0l0 -3.859375l15.6875 -22.265625l3.4375 0l0 22.265625l4.640625 0l0 3.859375l-4.640625 0l0 8.234375l-4.21875 0zm0 -12.09375l0 -15.5l-10.75 15.5l10.75 0zm13.1796875 -4.859375q0 -6.09375 1.25 -9.796875q1.25 -3.71875 3.71875 -5.734375q2.484375 -2.015625 6.234375 -2.015625q2.765625 0 4.84375 1.109375q2.09375 1.109375 3.453125 3.21875q1.359375 2.09375 2.125 5.109375q0.78125 3.0 0.78125 8.109375q0 6.046875 -1.25 9.765625q-1.234375 3.71875 -3.71875 5.75q-2.46875 2.03125 -6.234375 2.03125q-4.96875 0 -7.8125 -3.578125q-3.390625 -4.28125 -3.390625 -13.96875zm4.328125 0q0 8.46875 1.984375 11.265625q1.984375 2.796875 4.890625 2.796875q2.90625 0 4.875 -2.8125q1.984375 -2.8125 1.984375 -11.25q0 -8.484375 -1.984375 -11.265625q-1.96875 -2.796875 -4.921875 -2.796875q-2.90625 0 -4.640625 2.46875q-2.1875 3.140625 -2.1875 11.59375z" fill-rule="nonzero"/><path fill="#fff2cc" d="m68.76903 333.2467l171.33858 0l0 77.51184l-171.33858 0z" fill-rule="evenodd"/><path fill="#000000" d="m129.74301 380.0826l4.421875 -0.375q0.5 3.234375 2.28125 4.859375q1.796875 1.625 4.328125 1.625q3.046875 0 5.15625 -2.296875q2.109375 -2.296875 2.109375 -6.09375q0 -3.609375 -2.03125 -5.6875q-2.015625 -2.09375 -5.296875 -2.09375q-2.046875 0 -3.6875 0.9375q-1.640625 0.921875 -2.578125 2.390625l-3.953125 -0.515625l3.328125 -17.640625l17.078125 0l0 4.03125l-13.703125 0l-1.859375 9.234375q3.09375 -2.15625 6.5 -2.15625q4.5 0 7.59375 3.125q3.09375 3.109375 3.09375 8.0q0 4.671875 -2.71875 8.0625q-3.3125 4.1875 -9.03125 4.1875q-4.6875 0 -7.65625 -2.625q-2.953125 -2.640625 -3.375 -6.96875zm26.695312 -7.953125q0 -6.09375 1.25 -9.796875q1.25 -3.71875 3.71875 -5.734375q2.484375 -2.015625 6.234375 -2.015625q2.765625 0 4.84375 1.109375q2.09375 1.109375 3.453125 3.21875q1.359375 2.09375 2.125 5.109375q0.78125 3.0 0.78125 8.109375q0 6.046875 -1.25 9.765625q-1.234375 3.71875 -3.71875 5.75q-2.46875 2.03125 -6.234375 2.03125q-4.96875 0 -7.8125 -3.578125q-3.390625 -4.28125 -3.390625 -13.96875zm4.328125 0q0 8.46875 1.984375 11.265625q1.984375 2.796875 4.890625 2.796875q2.90625 0 4.875 -2.8125q1.984375 -2.8125 1.984375 -11.25q0 -8.484375 -1.984375 -11.265625q-1.96875 -2.796875 -4.921875 -2.796875q-2.90625 0 -4.640625 2.46875q-2.1875 3.140625 -2.1875 11.59375z" fill-rule="nonzero"/><path fill="#fff2cc" d="m264.2824 336.83728l195.87402 0l0 77.51181l-195.87402 0z" fill-rule="evenodd"/><path fill="#000000" d="m359.41473 366.72006l-4.203125 0.328125q-0.5625 -2.484375 -1.59375 -3.609375q-1.703125 -1.796875 -4.21875 -1.796875q-2.015625 0 -3.53125 1.125q-2.0 1.453125 -3.15625 4.25q-1.140625 2.78125 -1.1875 7.9375q1.53125 -2.328125 3.734375 -3.453125q2.203125 -1.125 4.609375 -1.125q4.21875 0 7.1875 3.109375q2.96875 3.109375 2.96875 8.03125q0 3.234375 -1.40625 6.015625q-1.390625 2.765625 -3.828125 4.25q-2.4375 1.484375 -5.53125 1.484375q-5.265625 0 -8.59375 -3.875q-3.328125 -3.890625 -3.328125 -12.796875q0 -9.96875 3.671875 -14.484375q3.21875 -3.9375 8.65625 -3.9375q4.046875 0 6.640625 2.28125q2.59375 2.265625 3.109375 6.265625zm-17.234375 14.8125q0 2.1875 0.921875 4.1875q0.9375 1.984375 2.59375 3.03125q1.671875 1.03125 3.5 1.03125q2.671875 0 4.59375 -2.15625q1.921875 -2.15625 1.921875 -5.859375q0 -3.5625 -1.90625 -5.609375q-1.890625 -2.046875 -4.78125 -2.046875q-2.859375 0 -4.859375 2.046875q-1.984375 2.046875 -1.984375 5.375zm22.039062 -5.8125q0 -6.09375 1.25 -9.796875q1.25 -3.71875 3.71875 -5.734375q2.484375 -2.015625 6.234375 -2.015625q2.765625 0 4.84375 1.109375q2.09375 1.109375 3.453125 3.21875q1.359375 2.09375 2.125 5.109375q0.78125 3.0 0.78125 8.109375q0 6.046875 -1.25 9.765625q-1.234375 3.71875 -3.71875 5.75q-2.46875 2.03125 -6.234375 2.03125q-4.96875 0 -7.8125 -3.578125q-3.390625 -4.28125 -3.390625 -13.96875zm4.328125 0q0 8.46875 1.984375 11.265625q1.984375 2.796875 4.890625 2.796875q2.90625 0 4.875 -2.8125q1.984375 -2.8125 1.984375 -11.25q0 -8.484375 -1.984375 -11.265625q-1.96875 -2.796875 -4.921875 -2.796875q-2.90625 0 -4.640625 2.46875q-2.1875 3.140625 -2.1875 11.59375z" fill-rule="nonzero"/><path fill="#fff2cc" d="m484.3336 336.2362l195.87405 0l0 77.51181l-195.87405 0z" fill-rule="evenodd"/><path fill="#000000" d="m557.85657 362.21274l0 -4.0625l22.234375 0l0 3.28125q-3.28125 3.5 -6.5 9.296875q-3.21875 5.78125 -4.984375 11.890625q-1.265625 4.3125 -1.609375 9.453125l-4.34375 0q0.078125 -4.0625 1.59375 -9.796875q1.53125 -5.75 4.375 -11.078125q2.84375 -5.328125 6.0625 -8.984375l-16.828125 0zm26.414062 12.90625q0 -6.09375 1.25 -9.796875q1.25 -3.71875 3.71875 -5.734375q2.484375 -2.015625 6.234375 -2.015625q2.765625 0 4.84375 1.109375q2.09375 1.109375 3.453125 3.21875q1.359375 2.09375 2.125 5.109375q0.78125 3.0 0.78125 8.109375q0 6.046875 -1.25 9.765625q-1.234375 3.71875 -3.71875 5.75q-2.46875 2.03125 -6.234375 2.03125q-4.96875 0 -7.8125 -3.578125q-3.390625 -4.28125 -3.390625 -13.96875zm4.328125 0q0 8.46875 1.984375 11.265625q1.984375 2.796875 4.890625 2.796875q2.90625 0 4.875 -2.8125q1.984375 -2.8125 1.984375 -11.25q0 -8.484375 -1.984375 -11.265625q-1.96875 -2.796875 -4.921875 -2.796875q-2.90625 0 -4.640625 2.46875q-2.1875 3.140625 -2.1875 11.59375z" fill-rule="nonzero"/><path fill="#fff2cc" d="m706.87665 336.2362l175.81104 0l0 77.51181l-175.81104 0z" fill-rule="evenodd"/><path fill="#000000" d="m776.5712 373.4315q-2.625 -0.953125 -3.890625 -2.734375q-1.265625 -1.78125 -1.265625 -4.265625q0 -3.75 2.6875 -6.296875q2.703125 -2.5625 7.1875 -2.5625q4.5 0 7.234375 2.609375q2.75 2.609375 2.75 6.359375q0 2.390625 -1.265625 4.171875q-1.25 1.765625 -3.796875 2.71875q3.15625 1.03125 4.8125 3.328125q1.65625 2.296875 1.65625 5.484375q0 4.40625 -3.125 7.421875q-3.109375 3.0 -8.203125 3.0q-5.078125 0 -8.203125 -3.015625q-3.109375 -3.015625 -3.109375 -7.515625q0 -3.359375 1.6875 -5.609375q1.703125 -2.265625 4.84375 -3.09375zm-0.84375 -7.140625q0 2.4375 1.5625 3.984375q1.578125 1.546875 4.09375 1.546875q2.4375 0 3.984375 -1.53125q1.5625 -1.546875 1.5625 -3.765625q0 -2.328125 -1.609375 -3.90625q-1.59375 -1.578125 -3.984375 -1.578125q-2.421875 0 -4.015625 1.546875q-1.59375 1.546875 -1.59375 3.703125zm-1.359375 15.859375q0 1.8125 0.859375 3.5q0.859375 1.6875 2.546875 2.609375q1.6875 0.921875 3.625 0.921875q3.03125 0 5.0 -1.9375q1.96875 -1.953125 1.96875 -4.953125q0 -3.046875 -2.03125 -5.03125q-2.03125 -2.0 -5.078125 -2.0q-2.96875 0 -4.9375 1.96875q-1.953125 1.96875 -1.953125 4.921875zm22.414062 -7.03125q0 -6.09375 1.25 -9.796875q1.25 -3.71875 3.71875 -5.734375q2.484375 -2.015625 6.234375 -2.015625q2.765625 0 4.84375 1.109375q2.09375 1.109375 3.453125 3.21875q1.359375 2.09375 2.125 5.109375q0.78125 3.0 0.78125 8.109375q0 6.046875 -1.25 9.765625q-1.234375 3.71875 -3.71875 5.75q-2.46875 2.03125 -6.234375 2.03125q-4.96875 0 -7.8125 -3.578125q-3.390625 -4.28125 -3.390625 -13.96875zm4.328125 0q0 8.46875 1.984375 11.265625q1.984375 2.796875 4.890625 2.796875q2.90625 0 4.875 -2.8125q1.984375 -2.8125 1.984375 -11.25q0 -8.484375 -1.984375 -11.265625q-1.96875 -2.796875 -4.921875 -2.796875q-2.90625 0 -4.640625 2.46875q-2.1875 3.140625 -2.1875 11.59375z" fill-rule="nonzero"/><path fill="#000000" fill-opacity="0.0" d="m37.94488 202.69292l0 -80.850395l23.086617 0l0 80.850395z" fill-rule="evenodd"/><path fill="#000000" d="m56.408188 193.72417l-13.359375 -5.125l0 -1.90625l13.359375 -5.46875l0 2.015625l-4.046875 1.546875l0 5.59375l4.046875 1.46875l0 1.875zm-5.484375 -3.859375l0 -4.53125l-3.703125 1.40625q-1.6875 0.625 -2.765625 0.9375q1.28125 0.265625 2.546875 0.71875l3.921875 1.46875zm5.484375 -9.834198l-9.671875 0l0 -1.46875l1.46875 0q-1.03125 -0.5625 -1.359375 -1.03125q-0.328125 -0.484375 -0.328125 -1.0625q0 -0.828125 0.53125 -1.6875l1.515625 0.5625q-0.359375 0.609375 -0.359375 1.203125q0 0.546875 0.328125 0.96875q0.328125 0.421875 0.890625 0.609375q0.875 0.28125 1.921875 0.28125l5.0625 0l0 1.625zm0 -6.212677l-9.671875 0l0 -1.46875l1.46875 0q-1.03125 -0.5625 -1.359375 -1.03125q-0.328125 -0.484375 -0.328125 -1.0625q0 -0.828125 0.53125 -1.6875l1.515625 0.5625q-0.359375 0.609375 -0.359375 1.203125q0 0.546875 0.328125 0.96875q0.328125 0.421875 0.890625 0.609375q0.875 0.28125 1.921875 0.28125l5.0625 0l0 1.625zm-1.1875 -12.540802q0.765625 0.921875 1.09375 1.765625q0.3125 0.828125 0.3125 1.796875q0 1.59375 -0.78125 2.453125q-0.78125 0.859375 -1.984375 0.859375q-0.71875 0 -1.296875 -0.328125q-0.59375 -0.328125 -0.9375 -0.84375q-0.359375 -0.53125 -0.546875 -1.1875q-0.125 -0.46875 -0.25 -1.453125q-0.234375 -1.984375 -0.5625 -2.921875q-0.34375 -0.015625 -0.421875 -0.015625q-1.0 0 -1.421875 0.46875q-0.546875 0.625 -0.546875 1.875q0 1.15625 0.40625 1.703125q0.40625 0.546875 1.421875 0.8125l-0.21875 1.609375q-1.015625 -0.21875 -1.640625 -0.71875q-0.640625 -0.5 -0.984375 -1.453125q-0.34375 -0.953125 -0.34375 -2.1875q0 -1.25 0.296875 -2.015625q0.28125 -0.78125 0.734375 -1.140625q0.4375 -0.375 1.109375 -0.515625q0.421875 -0.078125 1.515625 -0.078125l2.1875 0q2.28125 0 2.890625 -0.109375q0.59375 -0.109375 1.15625 -0.40625l0 1.703125q-0.515625 0.265625 -1.1875 0.328125zm-3.671875 0.140625q0.375 0.890625 0.625 2.671875q0.140625 1.015625 0.328125 1.4375q0.1875 0.421875 0.53125 0.65625q0.34375 0.21875 0.78125 0.21875q0.65625 0 1.09375 -0.5q0.4375 -0.5 0.4375 -1.453125q0 -0.9375 -0.40625 -1.671875q-0.421875 -0.75 -1.140625 -1.09375q-0.5625 -0.265625 -1.640625 -0.265625l-0.609375 0zm8.578125 -4.125717l-1.53125 0.1875q0.140625 -0.546875 0.140625 -0.9375q0 -0.546875 -0.1875 -0.875q-0.171875 -0.328125 -0.5 -0.546875q-0.25 -0.15625 -1.21875 -0.5q-0.140625 -0.046875 -0.40625 -0.140625l-9.6875 3.671875l0 -1.765625l5.59375 -2.015625q1.078125 -0.390625 2.25 -0.703125q-1.125 -0.28125 -2.203125 -0.671875l-5.640625 -2.078125l0 -1.640625l9.828125 3.6875q1.609375 0.59375 2.203125 0.921875q0.8125 0.4375 1.1875 1.0q0.375 0.5625 0.375 1.34375q0 0.484375 -0.203125 1.0625zm-4.90625 -20.902054q0.765625 0.921875 1.09375 1.765625q0.3125 0.828125 0.3125 1.796875q0 1.59375 -0.78125 2.453125q-0.78125 0.859375 -1.984375 0.859375q-0.71875 0 -1.296875 -0.328125q-0.59375 -0.328125 -0.9375 -0.84375q-0.359375 -0.53125 -0.546875 -1.1875q-0.125 -0.46875 -0.25 -1.453125q-0.234375 -1.984375 -0.5625 -2.921875q-0.34375 -0.015625 -0.421875 -0.015625q-1.0 0 -1.421875 0.46875q-0.546875 0.625 -0.546875 1.875q0 1.15625 0.40625 1.703125q0.40625 0.546875 1.421875 0.8125l-0.21875 1.609375q-1.015625 -0.21875 -1.640625 -0.71875q-0.640625 -0.5 -0.984375 -1.453125q-0.34375 -0.953125 -0.34375 -2.1875q0 -1.25 0.296875 -2.015625q0.28125 -0.78125 0.734375 -1.140625q0.4375 -0.375 1.109375 -0.515625q0.421875 -0.078125 1.515625 -0.078125l2.1875 0q2.28125 0 2.890625 -0.109375q0.59375 -0.109375 1.15625 -0.40625l0 1.703125q-0.515625 0.265625 -1.1875 0.328125zm-3.671875 0.140625q0.375 0.890625 0.625 2.671875q0.140625 1.015625 0.328125 1.4375q0.1875 0.421875 0.53125 0.65625q0.34375 0.21875 0.78125 0.21875q0.65625 0 1.09375 -0.5q0.4375 -0.5 0.4375 -1.453125q0 -0.9375 -0.40625 -1.671875q-0.421875 -0.75 -1.140625 -1.09375q-0.5625 -0.265625 -1.640625 -0.265625l-0.609375 0z" fill-rule="nonzero"/><path fill="#000000" fill-opacity="0.0" d="m37.94488 415.2756l0 -80.566956l23.086617 0l0 80.566956z" fill-rule="evenodd"/><path fill="#000000" d="m56.408188 406.30685l-13.359375 -5.125l0 -1.90625l13.359375 -5.46875l0 2.015625l-4.046875 1.546875l0 5.59375l4.046875 1.46875l0 1.875zm-5.484375 -3.859375l0 -4.53125l-3.703125 1.40625q-1.6875 0.625 -2.765625 0.9375q1.28125 0.265625 2.546875 0.71875l3.921875 1.46875zm5.484375 -9.834198l-9.671875 0l0 -1.46875l1.46875 0q-1.03125 -0.5625 -1.359375 -1.03125q-0.328125 -0.484375 -0.328125 -1.0625q0 -0.828125 0.53125 -1.6875l1.515625 0.5625q-0.359375 0.609375 -0.359375 1.203125q0 0.546875 0.328125 0.96875q0.328125 0.421875 0.890625 0.609375q0.875 0.28125 1.921875 0.28125l5.0625 0l0 1.625zm0 -6.212677l-9.671875 0l0 -1.46875l1.46875 0q-1.03125 -0.5625 -1.359375 -1.03125q-0.328125 -0.484375 -0.328125 -1.0625q0 -0.828125 0.53125 -1.6875l1.515625 0.5625q-0.359375 0.609375 -0.359375 1.203125q0 0.546875 0.328125 0.96875q0.328125 0.421875 0.890625 0.609375q0.875 0.28125 1.921875 0.28125l5.0625 0l0 1.625zm-1.1875 -12.540802q0.765625 0.921875 1.09375 1.765625q0.3125 0.828125 0.3125 1.796875q0 1.59375 -0.78125 2.453125q-0.78125 0.859375 -1.984375 0.859375q-0.71875 0 -1.296875 -0.328125q-0.59375 -0.328125 -0.9375 -0.84375q-0.359375 -0.53125 -0.546875 -1.1875q-0.125 -0.46875 -0.25 -1.453125q-0.234375 -1.984375 -0.5625 -2.921875q-0.34375 -0.015625 -0.421875 -0.015625q-1.0 0 -1.421875 0.46875q-0.546875 0.625 -0.546875 1.875q0 1.15625 0.40625 1.703125q0.40625 0.546875 1.421875 0.8125l-0.21875 1.609375q-1.015625 -0.21875 -1.640625 -0.71875q-0.640625 -0.5 -0.984375 -1.453125q-0.34375 -0.953125 -0.34375 -2.1875q0 -1.25 0.296875 -2.015625q0.28125 -0.78125 0.734375 -1.140625q0.4375 -0.375 1.109375 -0.515625q0.421875 -0.078125 1.515625 -0.078125l2.1875 0q2.28125 0 2.890625 -0.109375q0.59375 -0.109375 1.15625 -0.40625l0 1.703125q-0.515625 0.265625 -1.1875 0.328125zm-3.671875 0.140625q0.375 0.890625 0.625 2.671875q0.140625 1.015625 0.328125 1.4375q0.1875 0.421875 0.53125 0.65625q0.34375 0.21875 0.78125 0.21875q0.65625 0 1.09375 -0.5q0.4375 -0.5 0.4375 -1.453125q0 -0.9375 -0.40625 -1.671875q-0.421875 -0.75 -1.140625 -1.09375q-0.5625 -0.265625 -1.640625 -0.265625l-0.609375 0zm8.578125 -4.1257324l-1.53125 0.1875q0.140625 -0.546875 0.140625 -0.9375q0 -0.546875 -0.1875 -0.875q-0.171875 -0.328125 -0.5 -0.546875q-0.25 -0.15625 -1.21875 -0.5q-0.140625 -0.046875 -0.40625 -0.140625l-9.6875 3.671875l0 -1.765625l5.59375 -2.015625q1.078125 -0.390625 2.25 -0.703125q-1.125 -0.28125 -2.203125 -0.671875l-5.640625 -2.078125l0 -1.640625l9.828125 3.6875q1.609375 0.59375 2.203125 0.921875q0.8125 0.4375 1.1875 1.0q0.375 0.5625 0.375 1.34375q0 0.484375 -0.203125 1.0625zm-3.71875 -16.089539l0 1.515625l-13.359375 0l0 -1.640625l4.765625 0q-1.296875 -1.046875 -1.296875 -2.65625q0 -0.890625 0.359375 -1.6875q0.359375 -0.796875 1.015625 -1.3125q0.640625 -0.515625 1.5625 -0.796875q0.921875 -0.296875 1.96875 -0.296875q2.484375 0 3.84375 1.234375q1.359375 1.21875 1.359375 2.953125q0 1.703125 -1.4375 2.6875l1.21875 0zm-4.90625 0.015625q1.734375 0 2.515625 -0.484375q1.265625 -0.765625 1.265625 -2.09375q0 -1.078125 -0.9375 -1.859375q-0.9375 -0.78125 -2.78125 -0.78125q-1.890625 0 -2.796875 0.75q-0.90625 0.75 -0.90625 1.828125q0 1.0625 0.9375 1.859375q0.9375 0.78125 2.703125 0.78125z" fill-rule="nonzero"/><path fill="#000000" fill-opacity="0.0" d="m125.78089 253.0541l31.90551 0l0 27.559036l-31.90551 0z" fill-rule="evenodd"/><path fill="#000000" d="m140.40552 274.8505l0 -6.28125l-6.234375 0l0 -2.625l6.234375 0l0 -6.234375l2.65625 0l0 6.234375l6.234375 0l0 2.625l-6.234375 0l0 6.28125l-2.65625 0z" fill-rule="nonzero"/><path fill="#000000" fill-opacity="0.0" d="m345.84387 254.84937l31.905518 0l0 27.559052l-31.905518 0z" fill-rule="evenodd"/><path fill="#000000" d="m360.4685 276.64575l0 -6.28125l-6.234375 0l0 -2.625l6.234375 0l0 -6.234375l2.65625 0l0 6.234375l6.234375 0l0 2.625l-6.234375 0l0 6.28125l-2.65625 0z" fill-rule="nonzero"/><path fill="#000000" fill-opacity="0.0" d="m565.90686 256.21945l31.905518 0l0 27.559052l-31.905518 0z" fill-rule="evenodd"/><path fill="#000000" d="m580.5315 278.01584l0 -6.28125l-6.234375 0l0 -2.625l6.234375 0l0 -6.234375l2.65625 0l0 6.234375l6.234375 0l0 2.625l-6.234375 0l0 6.28125l-2.65625 0z" fill-rule="nonzero"/><path fill="#000000" fill-opacity="0.0" d="m788.8596 256.21945l31.905518 0l0 27.559052l-31.905518 0z" fill-rule="evenodd"/><path fill="#000000" d="m803.48425 278.01584l0 -6.28125l-6.234375 0l0 -2.625l6.234375 0l0 -6.234375l2.65625 0l0 6.234375l6.234375 0l0 2.625l-6.234375 0l0 6.28125l-2.65625 0z" fill-rule="nonzero"/><path fill="#000000" fill-opacity="0.0" d="m104.91601 56.377953l98.173225 0l0 23.086617l-98.173225 0z" fill-rule="evenodd"/><path fill="#000000" d="m118.75976 74.841255l0 -11.781246l-4.40625 0l0 -1.578125l10.578125 0l0 1.578125l-4.40625 0l0 11.781246l-1.765625 0zm7.786606 0l0 -13.359371l1.6406326 0l0 4.796871q1.140625 -1.328125 2.890625 -1.328125q1.078125 0 1.859375 0.421875q0.796875 0.421875 1.140625 1.171875q0.34375 0.75 0.34375 2.171875l0 6.125l-1.640625 0l0 -6.125q0 -1.234375 -0.53125 -1.796875q-0.53125 -0.5625 -1.515625 -0.5625q-0.71875 0 -1.359375 0.390625q-0.640625 0.375 -0.921875 1.015625q-0.265625 0.640625 -0.265625 1.78125l0 5.296875l-1.6406326 0zm10.3601 0l0 -9.671875l1.46875 0l0 1.46875q0.5625 -1.03125 1.03125 -1.359375q0.484375 -0.328125 1.0625 -0.328125q0.828125 0 1.6875 0.53125l-0.5625 1.515625q-0.609375 -0.359375 -1.203125 -0.359375q-0.546875 0 -0.96875 0.328125q-0.421875 0.328125 -0.609375 0.890625q-0.28125 0.875 -0.28125 1.921875l0 5.0625l-1.625 0zm12.853302 -3.109375l1.6875 0.203125q-0.40625 1.484375 -1.484375 2.3125q-1.078125 0.8125 -2.765625 0.8125q-2.125 0 -3.375 -1.296875q-1.234375 -1.3125 -1.234375 -3.671875q0 -2.453125 1.25 -3.796875q1.265625 -1.34375 3.265625 -1.34375q1.9375 0 3.15625 1.328125q1.234375 1.3125 1.234375 3.703125q0 0.15625 0 0.4375l-7.21875 0q0.09375 1.59375 0.90625 2.453125q0.8125 0.84375 2.015625 0.84375q0.90625 0 1.546875 -0.46875q0.640625 -0.484375 1.015625 -1.515625zm-5.390625 -2.65625l5.40625 0q-0.109375 -1.21875 -0.625 -1.828125q-0.78125 -0.953125 -2.03125 -0.953125q-1.125 0 -1.90625 0.765625q-0.765625 0.75 -0.84375 2.015625zm15.453842 4.578125q-0.921875 0.765625 -1.765625 1.09375q-0.828125 0.3125 -1.796875 0.3125q-1.59375 0 -2.453125 -0.78125q-0.859375 -0.78125 -0.859375 -1.984375q0 -0.71875 0.328125 -1.296875q0.328125 -0.59375 0.84375 -0.9375q0.53125 -0.359375 1.1875 -0.546875q0.46875 -0.125 1.453125 -0.25q1.984375 -0.234375 2.921875 -0.5625q0.015625 -0.34375 0.015625 -0.421875q0 -1.0 -0.46875 -1.421875q-0.625 -0.546875 -1.875 -0.546875q-1.15625 0 -1.703125 0.40625q-0.546875 0.40625 -0.8125 1.421875l-1.609375 -0.21875q0.21875 -1.015625 0.71875 -1.640625q0.5 -0.640625 1.453125 -0.984375q0.953125 -0.34375 2.1875 -0.34375q1.25 0 2.015625 0.296875q0.78125 0.28125 1.140625 0.734375q0.375 0.4375 0.515625 1.109375q0.078125 0.421875 0.078125 1.515625l0 2.1875q0 2.28125 0.109375 2.890625q0.109375 0.59375 0.40625 1.15625l-1.703125 0q-0.265625 -0.515625 -0.328125 -1.1875zm-0.140625 -3.671875q-0.890625 0.375 -2.671875 0.625q-1.015625 0.140625 -1.4375 0.328125q-0.421875 0.1875 -0.65625 0.53125q-0.21875 0.34375 -0.21875 0.78125q0 0.65625 0.5 1.09375q0.5 0.4375 1.453125 0.4375q0.9375 0 1.671875 -0.40625q0.75 -0.421875 1.09375 -1.140625q0.265625 -0.5625 0.265625 -1.640625l0 -0.609375zm10.469467 4.859375l0 -1.21875q-0.90625 1.4375 -2.703125 1.4375q-1.15625 0 -2.125 -0.640625q-0.96875 -0.640625 -1.5 -1.78125q-0.53125 -1.140625 -0.53125 -2.625q0 -1.453125 0.484375 -2.625q0.484375 -1.1875 1.4375 -1.8125q0.96875 -0.625 2.171875 -0.625q0.875 0 1.546875 0.375q0.6875 0.359375 1.109375 0.953125l0 -4.796871l1.640625 0l0 13.359371l-1.53125 0zm-5.171875 -4.828125q0 1.859375 0.78125 2.78125q0.78125 0.921875 1.84375 0.921875q1.078125 0 1.828125 -0.875q0.75 -0.890625 0.75 -2.6875q0 -1.984375 -0.765625 -2.90625q-0.765625 -0.9375 -1.890625 -0.9375q-1.078125 0 -1.8125 0.890625q-0.734375 0.890625 -0.734375 2.8125zm20.184021 4.828125l-1.640625 0l0 -10.453125q-0.59375 0.5625 -1.5625 1.140625q-0.953125 0.5625 -1.71875 0.84375l0 -1.59375q1.375 -0.640625 2.40625 -1.5624962q1.03125 -0.921875 1.453125 -1.78125l1.0625 0l0 13.406246z" fill-rule="nonzero"/><path fill="#000000" fill-opacity="0.0" d="m321.6614 56.377953l98.17325 0l0 23.086617l-98.17325 0z" fill-rule="evenodd"/><path fill="#000000" d="m335.50516 74.841255l0 -11.781246l-4.40625 0l0 -1.578125l10.578125 0l0 1.578125l-4.40625 0l0 11.781246l-1.765625 0zm7.786621 0l0 -13.359371l1.640625 0l0 4.796871q1.140625 -1.328125 2.890625 -1.328125q1.078125 0 1.859375 0.421875q0.796875 0.421875 1.140625 1.171875q0.34375 0.75 0.34375 2.171875l0 6.125l-1.640625 0l0 -6.125q0 -1.234375 -0.53125 -1.796875q-0.53125 -0.5625 -1.515625 -0.5625q-0.71875 0 -1.359375 0.390625q-0.640625 0.375 -0.921875 1.015625q-0.265625 0.640625 -0.265625 1.78125l0 5.296875l-1.640625 0zm10.360077 0l0 -9.671875l1.46875 0l0 1.46875q0.5625 -1.03125 1.03125 -1.359375q0.484375 -0.328125 1.0625 -0.328125q0.828125 0 1.6875 0.53125l-0.5625 1.515625q-0.609375 -0.359375 -1.203125 -0.359375q-0.546875 0 -0.96875 0.328125q-0.421875 0.328125 -0.609375 0.890625q-0.28125 0.875 -0.28125 1.921875l0 5.0625l-1.625 0zm12.853302 -3.109375l1.6875 0.203125q-0.40625 1.484375 -1.484375 2.3125q-1.078125 0.8125 -2.765625 0.8125q-2.125 0 -3.375 -1.296875q-1.234375 -1.3125 -1.234375 -3.671875q0 -2.453125 1.25 -3.796875q1.265625 -1.34375 3.265625 -1.34375q1.9375 0 3.15625 1.328125q1.234375 1.3125 1.234375 3.703125q0 0.15625 0 0.4375l-7.21875 0q0.09375 1.59375 0.90625 2.453125q0.8125 0.84375 2.015625 0.84375q0.90625 0 1.546875 -0.46875q0.640625 -0.484375 1.015625 -1.515625zm-5.390625 -2.65625l5.40625 0q-0.109375 -1.21875 -0.625 -1.828125q-0.78125 -0.953125 -2.03125 -0.953125q-1.125 0 -1.90625 0.765625q-0.765625 0.75 -0.84375 2.015625zm15.453857 4.578125q-0.921875 0.765625 -1.765625 1.09375q-0.828125 0.3125 -1.796875 0.3125q-1.59375 0 -2.453125 -0.78125q-0.859375 -0.78125 -0.859375 -1.984375q0 -0.71875 0.328125 -1.296875q0.328125 -0.59375 0.84375 -0.9375q0.53125 -0.359375 1.1875 -0.546875q0.46875 -0.125 1.453125 -0.25q1.984375 -0.234375 2.921875 -0.5625q0.015625 -0.34375 0.015625 -0.421875q0 -1.0 -0.46875 -1.421875q-0.625 -0.546875 -1.875 -0.546875q-1.15625 0 -1.703125 0.40625q-0.546875 0.40625 -0.8125 1.421875l-1.609375 -0.21875q0.21875 -1.015625 0.71875 -1.640625q0.5 -0.640625 1.453125 -0.984375q0.953125 -0.34375 2.1875 -0.34375q1.25 0 2.015625 0.296875q0.78125 0.28125 1.140625 0.734375q0.375 0.4375 0.515625 1.109375q0.078125 0.421875 0.078125 1.515625l0 2.1875q0 2.28125 0.109375 2.890625q0.109375 0.59375 0.40625 1.15625l-1.703125 0q-0.265625 -0.515625 -0.328125 -1.1875zm-0.140625 -3.671875q-0.890625 0.375 -2.671875 0.625q-1.015625 0.140625 -1.4375 0.328125q-0.421875 0.1875 -0.65625 0.53125q-0.21875 0.34375 -0.21875 0.78125q0 0.65625 0.5 1.09375q0.5 0.4375 1.453125 0.4375q0.9375 0 1.671875 -0.40625q0.75 -0.421875 1.09375 -1.140625q0.265625 -0.5625 0.265625 -1.640625l0 -0.609375zm10.469452 4.859375l0 -1.21875q-0.90625 1.4375 -2.703125 1.4375q-1.15625 0 -2.125 -0.640625q-0.96875 -0.640625 -1.5 -1.78125q-0.53125 -1.140625 -0.53125 -2.625q0 -1.453125 0.484375 -2.625q0.484375 -1.1875 1.4375 -1.8125q0.96875 -0.625 2.171875 -0.625q0.875 0 1.546875 0.375q0.6875 0.359375 1.109375 0.953125l0 -4.796871l1.640625 0l0 13.359371l-1.53125 0zm-5.171875 -4.828125q0 1.859375 0.78125 2.78125q0.78125 0.921875 1.84375 0.921875q1.078125 0 1.828125 -0.875q0.75 -0.890625 0.75 -2.6875q0 -1.984375 -0.765625 -2.90625q-0.765625 -0.9375 -1.890625 -0.9375q-1.078125 0 -1.8125 0.890625q-0.734375 0.890625 -0.734375 2.8125zm22.621521 3.25l0 1.578125l-8.828125 0q-0.015625 -0.59375 0.1875 -1.140625q0.34375 -0.90625 1.078125 -1.78125q0.75 -0.875 2.15625 -2.015625q2.171875 -1.78125 2.9375 -2.828125q0.765625 -1.046875 0.765625 -1.96875q0 -0.984375 -0.703125 -1.6406212q-0.6875 -0.671875 -1.8125 -0.671875q-1.1875 0 -1.90625 0.71875q-0.703125 0.7031212 -0.703125 1.9531212l-1.6875 -0.171875q0.171875 -1.8906212 1.296875 -2.8749962q1.140625 -0.984375 3.03125 -0.984375q1.921875 0 3.046875 1.0625q1.125 1.0625 1.125 2.6406212q0 0.796875 -0.328125 1.578125q-0.328125 0.78125 -1.09375 1.640625q-0.75 0.84375 -2.53125 2.34375q-1.46875 1.234375 -1.890625 1.6875q-0.421875 0.4375 -0.6875 0.875l6.546875 0z" fill-rule="nonzero"/><path fill="#000000" fill-opacity="0.0" d="m543.7848 56.377953l98.17322 0l0 23.086617l-98.17322 0z" fill-rule="evenodd"/><path fill="#000000" d="m557.62854 74.841255l0 -11.781246l-4.40625 0l0 -1.578125l10.578125 0l0 1.578125l-4.40625 0l0 11.781246l-1.765625 0zm7.786621 0l0 -13.359371l1.640625 0l0 4.796871q1.140625 -1.328125 2.890625 -1.328125q1.078125 0 1.859375 0.421875q0.796875 0.421875 1.140625 1.171875q0.34375 0.75 0.34375 2.171875l0 6.125l-1.640625 0l0 -6.125q0 -1.234375 -0.53125 -1.796875q-0.53125 -0.5625 -1.515625 -0.5625q-0.71875 0 -1.359375 0.390625q-0.640625 0.375 -0.921875 1.015625q-0.265625 0.640625 -0.265625 1.78125l0 5.296875l-1.640625 0zm10.360046 0l0 -9.671875l1.46875 0l0 1.46875q0.5625 -1.03125 1.03125 -1.359375q0.484375 -0.328125 1.0625 -0.328125q0.828125 0 1.6875 0.53125l-0.5625 1.515625q-0.609375 -0.359375 -1.203125 -0.359375q-0.546875 0 -0.96875 0.328125q-0.421875 0.328125 -0.609375 0.890625q-0.28125 0.875 -0.28125 1.921875l0 5.0625l-1.625 0zm12.8533325 -3.109375l1.6875 0.203125q-0.40625 1.484375 -1.484375 2.3125q-1.078125 0.8125 -2.765625 0.8125q-2.125 0 -3.375 -1.296875q-1.234375 -1.3125 -1.234375 -3.671875q0 -2.453125 1.25 -3.796875q1.265625 -1.34375 3.265625 -1.34375q1.9375 0 3.15625 1.328125q1.234375 1.3125 1.234375 3.703125q0 0.15625 0 0.4375l-7.21875 0q0.09375 1.59375 0.90625 2.453125q0.8125 0.84375 2.015625 0.84375q0.90625 0 1.546875 -0.46875q0.640625 -0.484375 1.015625 -1.515625zm-5.390625 -2.65625l5.40625 0q-0.109375 -1.21875 -0.625 -1.828125q-0.78125 -0.953125 -2.03125 -0.953125q-1.125 0 -1.90625 0.765625q-0.765625 0.75 -0.84375 2.015625zm15.453857 4.578125q-0.921875 0.765625 -1.765625 1.09375q-0.828125 0.3125 -1.796875 0.3125q-1.59375 0 -2.453125 -0.78125q-0.859375 -0.78125 -0.859375 -1.984375q0 -0.71875 0.328125 -1.296875q0.328125 -0.59375 0.84375 -0.9375q0.53125 -0.359375 1.1875 -0.546875q0.46875 -0.125 1.453125 -0.25q1.984375 -0.234375 2.921875 -0.5625q0.015625 -0.34375 0.015625 -0.421875q0 -1.0 -0.46875 -1.421875q-0.625 -0.546875 -1.875 -0.546875q-1.15625 0 -1.703125 0.40625q-0.546875 0.40625 -0.8125 1.421875l-1.609375 -0.21875q0.21875 -1.015625 0.71875 -1.640625q0.5 -0.640625 1.453125 -0.984375q0.953125 -0.34375 2.1875 -0.34375q1.25 0 2.015625 0.296875q0.78125 0.28125 1.140625 0.734375q0.375 0.4375 0.515625 1.109375q0.078125 0.421875 0.078125 1.515625l0 2.1875q0 2.28125 0.109375 2.890625q0.109375 0.59375 0.40625 1.15625l-1.703125 0q-0.265625 -0.515625 -0.328125 -1.1875zm-0.140625 -3.671875q-0.890625 0.375 -2.671875 0.625q-1.015625 0.140625 -1.4375 0.328125q-0.421875 0.1875 -0.65625 0.53125q-0.21875 0.34375 -0.21875 0.78125q0 0.65625 0.5 1.09375q0.5 0.4375 1.453125 0.4375q0.9375 0 1.671875 -0.40625q0.75 -0.421875 1.09375 -1.140625q0.265625 -0.5625 0.265625 -1.640625l0 -0.609375zm10.469421 4.859375l0 -1.21875q-0.90625 1.4375 -2.703125 1.4375q-1.15625 0 -2.125 -0.640625q-0.96875 -0.640625 -1.5 -1.78125q-0.53125 -1.140625 -0.53125 -2.625q0 -1.453125 0.484375 -2.625q0.484375 -1.1875 1.4375 -1.8125q0.96875 -0.625 2.171875 -0.625q0.875 0 1.546875 0.375q0.6875 0.359375 1.109375 0.953125l0 -4.796871l1.640625 0l0 13.359371l-1.53125 0zm-5.171875 -4.828125q0 1.859375 0.78125 2.78125q0.78125 0.921875 1.84375 0.921875q1.078125 0 1.828125 -0.875q0.75 -0.890625 0.75 -2.6875q0 -1.984375 -0.765625 -2.90625q-0.765625 -0.9375 -1.890625 -0.9375q-1.078125 0 -1.8125 0.890625q-0.734375 0.890625 -0.734375 2.8125zm14.012146 1.296875l1.640625 -0.21875q0.28125 1.40625 0.953125 2.015625q0.6875 0.609375 1.65625 0.609375q1.15625 0 1.953125 -0.796875q0.796875 -0.796875 0.796875 -1.984375q0 -1.125 -0.734375 -1.859375q-0.734375 -0.734375 -1.875 -0.734375q-0.46875 0 -1.15625 0.171875l0.1875 -1.4375q0.15625 0.015625 0.265625 0.015625q1.046875 0 1.875 -0.546875q0.84375 -0.546875 0.84375 -1.671875q0 -0.9062462 -0.609375 -1.4999962q-0.609375 -0.59375 -1.578125 -0.59375q-0.953125 0 -1.59375 0.609375q-0.640625 0.59375 -0.8125 1.7968712l-1.640625 -0.296875q0.296875 -1.6406212 1.359375 -2.5468712q1.0625 -0.90625 2.65625 -0.90625q1.09375 0 2.0 0.46875q0.921875 0.46875 1.40625 1.28125q0.5 0.8125 0.5 1.7187462q0 0.859375 -0.46875 1.578125q-0.46875 0.703125 -1.375 1.125q1.1875 0.28125 1.84375 1.140625q0.65625 0.859375 0.65625 2.15625q0 1.734375 -1.28125 2.953125q-1.265625 1.21875 -3.21875 1.21875q-1.765625 0 -2.921875 -1.046875q-1.15625 -1.046875 -1.328125 -2.71875z" fill-rule="nonzero"/><path fill="#000000" fill-opacity="0.0" d="m744.70605 56.377953l98.17322 0l0 23.086617l-98.17322 0z" fill-rule="evenodd"/><path fill="#000000" d="m758.5498 74.841255l0 -11.781246l-4.40625 0l0 -1.578125l10.578125 0l0 1.578125l-4.40625 0l0 11.781246l-1.765625 0zm7.78656 0l0 -13.359371l1.640625 0l0 4.796871q1.140625 -1.328125 2.890625 -1.328125q1.078125 0 1.859375 0.421875q0.796875 0.421875 1.140625 1.171875q0.34375 0.75 0.34375 2.171875l0 6.125l-1.640625 0l0 -6.125q0 -1.234375 -0.53125 -1.796875q-0.53125 -0.5625 -1.515625 -0.5625q-0.71875 0 -1.359375 0.390625q-0.640625 0.375 -0.921875 1.015625q-0.265625 0.640625 -0.265625 1.78125l0 5.296875l-1.640625 0zm10.360107 0l0 -9.671875l1.46875 0l0 1.46875q0.5625 -1.03125 1.03125 -1.359375q0.484375 -0.328125 1.0625 -0.328125q0.828125 0 1.6875 0.53125l-0.5625 1.515625q-0.609375 -0.359375 -1.203125 -0.359375q-0.546875 0 -0.96875 0.328125q-0.421875 0.328125 -0.609375 0.890625q-0.28125 0.875 -0.28125 1.921875l0 5.0625l-1.625 0zm12.8533325 -3.109375l1.6875 0.203125q-0.40625 1.484375 -1.484375 2.3125q-1.078125 0.8125 -2.765625 0.8125q-2.125 0 -3.375 -1.296875q-1.234375 -1.3125 -1.234375 -3.671875q0 -2.453125 1.25 -3.796875q1.265625 -1.34375 3.265625 -1.34375q1.9375 0 3.15625 1.328125q1.234375 1.3125 1.234375 3.703125q0 0.15625 0 0.4375l-7.21875 0q0.09375 1.59375 0.90625 2.453125q0.8125 0.84375 2.015625 0.84375q0.90625 0 1.546875 -0.46875q0.640625 -0.484375 1.015625 -1.515625zm-5.390625 -2.65625l5.40625 0q-0.109375 -1.21875 -0.625 -1.828125q-0.78125 -0.953125 -2.03125 -0.953125q-1.125 0 -1.90625 0.765625q-0.765625 0.75 -0.84375 2.015625zm15.453796 4.578125q-0.921875 0.765625 -1.765625 1.09375q-0.828125 0.3125 -1.796875 0.3125q-1.59375 0 -2.453125 -0.78125q-0.859375 -0.78125 -0.859375 -1.984375q0 -0.71875 0.328125 -1.296875q0.328125 -0.59375 0.84375 -0.9375q0.53125 -0.359375 1.1875 -0.546875q0.46875 -0.125 1.453125 -0.25q1.984375 -0.234375 2.921875 -0.5625q0.015625 -0.34375 0.015625 -0.421875q0 -1.0 -0.46875 -1.421875q-0.625 -0.546875 -1.875 -0.546875q-1.15625 0 -1.703125 0.40625q-0.546875 0.40625 -0.8125 1.421875l-1.609375 -0.21875q0.21875 -1.015625 0.71875 -1.640625q0.5 -0.640625 1.453125 -0.984375q0.953125 -0.34375 2.1875 -0.34375q1.25 0 2.015625 0.296875q0.78125 0.28125 1.140625 0.734375q0.375 0.4375 0.515625 1.109375q0.078125 0.421875 0.078125 1.515625l0 2.1875q0 2.28125 0.109375 2.890625q0.109375 0.59375 0.40625 1.15625l-1.703125 0q-0.265625 -0.515625 -0.328125 -1.1875zm-0.140625 -3.671875q-0.890625 0.375 -2.671875 0.625q-1.015625 0.140625 -1.4375 0.328125q-0.421875 0.1875 -0.65625 0.53125q-0.21875 0.34375 -0.21875 0.78125q0 0.65625 0.5 1.09375q0.5 0.4375 1.453125 0.4375q0.9375 0 1.671875 -0.40625q0.75 -0.421875 1.09375 -1.140625q0.265625 -0.5625 0.265625 -1.640625l0 -0.609375zm10.469482 4.859375l0 -1.21875q-0.90625 1.4375 -2.703125 1.4375q-1.15625 0 -2.125 -0.640625q-0.96875 -0.640625 -1.5 -1.78125q-0.53125 -1.140625 -0.53125 -2.625q0 -1.453125 0.484375 -2.625q0.484375 -1.1875 1.4375 -1.8125q0.96875 -0.625 2.171875 -0.625q0.875 0 1.546875 0.375q0.6875 0.359375 1.109375 0.953125l0 -4.796871l1.640625 0l0 13.359371l-1.53125 0zm-5.171875 -4.828125q0 1.859375 0.78125 2.78125q0.78125 0.921875 1.84375 0.921875q1.078125 0 1.828125 -0.875q0.75 -0.890625 0.75 -2.6875q0 -1.984375 -0.765625 -2.90625q-0.765625 -0.9375 -1.890625 -0.9375q-1.078125 0 -1.8125 0.890625q-0.734375 0.890625 -0.734375 2.8125zm19.262146 4.828125l0 -3.203125l-5.796875 0l0 -1.5l6.09375 -8.656246l1.34375 0l0 8.656246l1.796875 0l0 1.5l-1.796875 0l0 3.203125l-1.640625 0zm0 -4.703125l0 -6.015625l-4.1875 6.015625l4.1875 0z" fill-rule="nonzero"/></g></svg>
